<svg version="1.1" id="Layer_1" xmlns="http://www.w3.org/2000/svg" xmlns:xlink="http://www.w3.org/1999/xlink" x="0px" y="0px"
	 width="100%" viewBox="0 0 1024 1024" enable-background="new 0 0 1024 1024" xml:space="preserve">
<path fill="#000000" opacity="1.000000" stroke="none" 
	d="
M612.221924,213.693008 
	C635.218750,226.252228 655.789185,241.548080 674.029663,259.773254 
	C696.616089,282.340820 714.763550,308.129944 728.114319,337.235016 
	C738.947388,360.851166 746.434570,385.480316 749.913025,411.190186 
	C755.175537,450.086151 752.950256,488.522156 741.581055,526.288025 
	C730.011963,564.717773 710.801086,598.808533 684.101013,628.723816 
	C683.669617,629.207153 683.339417,629.780701 682.666992,630.727539 
	C690.052551,640.536804 697.429016,650.366699 704.839478,660.170959 
	C747.036804,715.998901 789.236938,771.824768 831.449097,827.641541 
	C840.902954,840.142273 839.093750,856.226562 827.144043,865.426758 
	C815.407837,874.462524 798.965576,872.087891 789.505188,859.614685 
	C756.377197,815.936279 723.373779,772.163391 690.325012,728.424866 
	C675.759155,709.147705 661.131958,689.916260 646.694336,670.543457 
	C644.038330,666.979553 641.962402,666.613892 638.254211,669.210815 
	C604.420776,692.905579 567.059998,708.125427 526.260925,714.524475 
	C501.630066,718.387634 476.854675,718.515625 452.079407,715.488220 
	C396.486786,708.695068 347.708984,686.578247 306.123444,649.257324 
	C267.914703,614.966980 241.558960,572.977844 227.269958,523.481628 
	C219.059250,495.040344 215.440018,466.036896 217.023682,436.588165 
	C220.000870,381.226288 237.929230,331.065765 271.812195,286.974976 
	C310.834625,236.196365 361.654846,203.148132 423.956940,188.566315 
	C484.440063,174.410217 543.017151,181.484726 599.442261,207.156372 
	C603.681519,209.085068 607.750366,211.388489 612.221924,213.693008 
M433.358002,232.003159 
	C385.196198,243.382629 344.858856,268.016022 313.468475,305.992554 
	C272.312439,355.783783 255.238129,413.210144 263.192108,477.704865 
	C267.061249,509.077698 276.923279,538.496643 293.645020,565.194824 
	C331.722717,625.990234 386.464325,661.805664 457.750427,671.220337 
	C481.593658,674.369324 505.530823,673.614563 529.292236,668.638367 
	C570.425781,660.023865 606.749512,641.916565 637.108704,612.998352 
	C685.890686,566.531860 709.694214,509.391144 707.958191,441.750885 
	C707.344910,417.856873 703.346130,394.572968 694.625366,372.481323 
	C662.785339,291.822998 603.723633,243.698135 518.461548,228.524582 
	C490.381195,223.527283 462.048309,225.037247 433.358002,232.003159 
z"/>
<path fill="#000000" opacity="1.000000" stroke="none" 
	d="
M461.494171,300.374268 
	C492.708954,298.996338 522.481384,302.752014 549.814941,318.098022 
	C578.154785,334.008942 595.780212,358.450714 605.172241,389.150757 
	C612.210754,412.157349 614.271057,435.855103 613.088989,459.723358 
	C611.715942,487.445618 605.922974,514.205811 591.271240,538.283997 
	C572.177673,569.662048 543.718872,587.445435 508.040405,594.050964 
	C473.012207,600.536194 438.508423,597.266724 404.400482,587.672485 
	C400.075897,586.456055 398.689941,584.381165 398.695770,579.953491 
	C398.810547,492.834290 398.825867,405.714783 398.670898,318.595734 
	C398.661865,313.522949 400.300812,311.269531 405.085052,309.805695 
	C423.346069,304.218384 442.064362,301.654449 461.494171,300.374268 
M536.597168,550.107422 
	C543.973022,544.288757 550.400879,537.616028 555.520752,529.682495 
	C565.367859,514.423706 570.577209,497.605347 573.055908,479.735321 
	C577.198608,449.868927 576.683899,420.251801 567.502502,391.340393 
	C559.167297,365.093323 543.085144,345.360992 516.688721,335.290405 
	C492.234344,325.960724 467.166199,326.823151 441.878845,330.854919 
	C437.049652,331.624908 435.259521,333.512421 435.270874,338.640839 
	C435.431732,411.439362 435.375793,484.238342 435.379730,557.037231 
	C435.380096,563.753723 436.071625,564.418640 442.865997,565.646851 
	C456.392517,568.092285 470.049530,568.187134 483.694855,567.696411 
	C502.733582,567.011719 520.446716,561.939148 536.597168,550.107422 
z"/>
</svg>